<?xml version="1.0" encoding="iso-8859-1"?>
<!-- Generator: Adobe Illustrator 19.0.0, SVG Export Plug-In . SVG Version: 6.00 Build 0)  -->
<svg version="1.1" id="Capa_1" xmlns="http://www.w3.org/2000/svg" xmlns:xlink="http://www.w3.org/1999/xlink" x="0px" y="0px"
	 viewBox="0 0 512 512" style="enable-background:new 0 0 512 512;" xml:space="preserve">
<path style="fill:#FEEDD0;" d="M512,215.52C512,109.912,426.088,24,320.48,24c-105.6,0-191.512,85.912-191.512,191.52
	c0,25.032,4.76,49.384,14.144,72.36l7.408-3.024L471.376,320l0,0l6.576,4.56C500.224,292.448,512,254.744,512,215.52z"/>
<path style="fill:#EB7665;" d="M327.624,389.576c-1.056-3.32-4.136-5.576-7.624-5.576H184c-4.416,0-8,3.584-8,8v72
	c0,4.416,3.584,8,8,8h18.768c11.624,0,22.792-3.544,32.296-10.248l89.552-63.216C327.464,396.528,328.68,392.904,327.624,389.576z"
	/>
<path style="fill:#F2F2F2;" d="M505.936,342.136l-50.408-56.712C447.936,276.896,437.04,272,425.632,272H86.088
	c-2.44,0-4.72-1.096-6.248-3l-28.8-36c-4.576-5.72-11.408-9-18.728-9H8c-4.416,0-8,3.584-8,8v93.112c0,9.224,3.984,18,10.928,24.08
	l33.184,29.032C60.16,392.272,80.736,400,102.056,400H488c13.232,0,24-10.768,24-24v-17.92
	C512,352.2,509.848,346.536,505.936,342.136z"/>
<g>
	<path style="fill:#E6E6E6;" d="M352,312h-24c-8.824,0-16,7.176-16,16v64c0,4.416,3.584,8,8,8h40c4.416,0,8-3.584,8-8v-64
		C368,319.176,360.824,312,352,312z"/>
	<rect x="264" y="312" style="fill:#E6E6E6;" width="16" height="32"/>
	<rect x="232" y="312" style="fill:#E6E6E6;" width="16" height="32"/>
	<rect x="200" y="312" style="fill:#E6E6E6;" width="16" height="32"/>
	<rect x="168" y="312" style="fill:#E6E6E6;" width="16" height="32"/>
	<rect x="136" y="312" style="fill:#E6E6E6;" width="16" height="32"/>
</g>
<path style="fill:#FDD189;" d="M82.84,271.264c-1.224-0.544-2.232-1.312-3-2.264l-7.408-9.264c-1.704-2.136-4.36-3.24-7.112-2.96
	c-2.72,0.296-5.096,1.96-6.312,4.408C50.848,277.728,34.36,288,16,288c-2.032,0-4.216-0.176-6.864-0.552
	c-2.304-0.336-4.624,0.672-6.376,2.192S0,293.68,0,296v29.112c0,0.32,0.04,0.84,0.088,1.24c0.28,3.256,2.52,6.04,5.696,6.984
	C11.752,335.104,17.88,336,24,336c32.448,0,59.76-24.288,63.528-56.496C87.936,276.024,86.04,272.688,82.84,271.264z"/>
<path style="fill:#EB7665;" d="M72.432,259.736L51.048,233c-4.584-5.72-11.416-9-18.736-9H8c-4.416,0-8,3.584-8,8v63.36
	c0,3.984,2.928,7.352,6.864,7.92C10.288,303.776,13.192,304,16,304c24.496,0,46.48-13.688,57.36-35.728
	C74.736,265.488,74.376,262.16,72.432,259.736z"/>
<rect x="104" y="312" style="fill:#E6E6E6;" width="16" height="32"/>
<path style="fill:#EB7665;" d="M486.312,320.056l-37.944-42.688c-3.04-3.416-7.392-5.368-11.96-5.368H400v72c0,8.84,7.16,16,16,16
	h60.312C494.184,350.552,496.664,331.704,486.312,320.056z"/>
<g>
	<rect x="312" y="32" style="fill:#FDD189;" width="16" height="24"/>
	<rect x="480" y="208" style="fill:#FDD189;" width="24" height="16"/>
	<rect x="136" y="208" style="fill:#FDD189;" width="24" height="16"/>
	
		<rect x="428.241" y="86.953" transform="matrix(-0.7071 0.7071 -0.7071 -0.7071 820.0528 -149.7716)" style="fill:#FDD189;" width="25.608" height="16"/>
	
		<rect x="189.746" y="81.256" transform="matrix(-0.6617 0.7498 -0.7498 -0.6617 399.7762 9.495)" style="fill:#FDD189;" width="16" height="27.369"/>
</g>
<g>
	<rect x="48" y="472" style="fill:#F2F2F2;" width="64" height="16"/>
	<rect x="16" y="472" style="fill:#F2F2F2;" width="16" height="16"/>
	<rect x="112" y="424" style="fill:#F2F2F2;" width="32" height="16"/>
	<rect x="80" y="424" style="fill:#F2F2F2;" width="16" height="16"/>
	<rect x="320" y="464" style="fill:#F2F2F2;" width="80" height="16"/>
	<rect x="288" y="464" style="fill:#F2F2F2;" width="16" height="16"/>
	<rect x="416" y="416" style="fill:#F2F2F2;" width="32" height="16"/>
	<rect x="384" y="416" style="fill:#F2F2F2;" width="16" height="16"/>
	<rect x="80" y="168" style="fill:#F2F2F2;" width="32" height="16"/>
	<rect x="56" y="104" style="fill:#F2F2F2;" width="72" height="16"/>
	<rect x="24" y="104" style="fill:#F2F2F2;" width="16" height="16"/>
	<rect x="48" y="168" style="fill:#F2F2F2;" width="16" height="16"/>
	<rect x="112" y="40" style="fill:#F2F2F2;" width="64" height="16"/>
	<rect x="80" y="40" style="fill:#F2F2F2;" width="16" height="16"/>
</g>
<g>
	<path style="fill:#FDD189;" d="M418.344,111.032l-1.376-1.376c-9.36-9.36-24.576-9.36-33.936,0l-68.688,68.688L320,184l5.656,5.656
		l12.688,12.688L344,208l5.656,5.656l68.688-68.688C427.704,135.616,427.704,120.384,418.344,111.032z"/>
	<path style="fill:#FDD189;" d="M325.768,178.456l-35.424-36.8c-9.36-9.344-24.584-9.352-33.952,0.008l-1.36,1.36
		C250.496,147.56,248,153.592,248,160s2.496,12.44,6.92,16.856l35.312,36.688l11.528-11.096l-0.104-0.112L320,184L325.768,178.456z"
		/>
</g>
<circle style="fill:#FDDAA1;" cx="320" cy="208" r="32"/>
<g>
</g>
<g>
</g>
<g>
</g>
<g>
</g>
<g>
</g>
<g>
</g>
<g>
</g>
<g>
</g>
<g>
</g>
<g>
</g>
<g>
</g>
<g>
</g>
<g>
</g>
<g>
</g>
<g>
</g>
</svg>
